<svg width="225" height="119" viewBox="0 0 225 119" fill="none" xmlns="http://www.w3.org/2000/svg">
<path d="M3.00733 0H27.6527C32.6405 0 36.528 1.24821 39.3153 3.74462C42.1515 6.24103 43.5696 9.66112 43.5696 14.0049C43.5696 17.2502 42.8361 20.0961 41.3691 22.5426C39.951 24.9891 37.6527 26.6617 34.4742 27.5604V27.7102C35.9901 28.0098 37.2126 28.509 38.1417 29.208C39.1197 29.907 39.8777 30.7558 40.4155 31.7544C41.0023 32.703 41.418 33.7765 41.6625 34.9747C41.9559 36.173 42.1759 37.4212 42.3226 38.7194C42.4204 40.0175 42.4938 41.3406 42.5427 42.6887C42.5916 44.0367 42.7138 45.3598 42.9094 46.658C43.105 47.9561 43.374 49.2043 43.7163 50.4026C44.1075 51.5509 44.6698 52.5745 45.4033 53.4732H37.6283C37.1393 52.924 36.797 52.175 36.6014 51.2264C36.4547 50.2778 36.3569 49.2293 36.308 48.0809C36.2591 46.8826 36.2102 45.6095 36.1613 44.2614C36.1124 42.9133 35.9657 41.5902 35.7212 40.2921C35.5256 38.994 35.2811 37.7707 34.9877 36.6224C34.6943 35.4241 34.2297 34.4006 33.5941 33.5518C32.9584 32.6531 32.1271 31.9541 31.1002 31.4548C30.0733 30.9056 28.7041 30.631 26.9926 30.631H9.97553V53.4732H3.00733V0ZM24.4987 24.6396C26.1124 24.6396 27.6527 24.5148 29.1197 24.2651C30.5867 24.0155 31.8581 23.5412 32.9339 22.8422C34.0586 22.0933 34.9388 21.1197 35.5745 19.9214C36.2591 18.6732 36.6014 17.0755 36.6014 15.1283C36.6014 12.4321 35.8679 10.2353 34.4009 8.53773C32.9339 6.84017 30.5623 5.99139 27.286 5.99139H9.97553V24.6396H24.4987Z" fill="black"/>
<path d="M48.0857 0H84.247V5.99139H55.0539V22.992H82.2666V28.9834H55.0539V47.4818H84.467V53.4732H48.0857V0Z" fill="black"/>
<path d="M87.7918 0H123.953V5.99139H94.76V22.992H121.973V28.9834H94.76V47.4818H124.173V53.4732H87.7918V0Z" fill="black"/>
<path d="M127.498 0H161.899V5.99139H134.466V22.992H158.525V28.9834H134.466V53.4732H127.498V0Z" fill="black"/>
<path d="M33.3007 78.843C32.9095 74.9985 31.5403 72.2275 29.1931 70.5299C26.8948 68.7824 23.9364 67.9087 20.3178 67.9087C18.8508 67.9087 17.4083 68.0585 15.9902 68.358C14.5721 68.6576 13.3007 69.1569 12.176 69.8559C11.1002 70.5549 10.22 71.5035 9.53543 72.7018C8.89973 73.8501 8.58189 75.2981 8.58189 77.0455C8.58189 78.6932 9.04643 80.0412 9.97553 81.0897C10.9535 82.0883 12.2249 82.9121 13.7897 83.5612C15.4034 84.2103 17.2127 84.7595 19.2176 85.2088C21.2224 85.6082 23.2518 86.0576 25.3056 86.5569C27.4082 87.0562 29.462 87.6553 31.4669 88.3543C33.4718 89.0034 35.2566 89.9021 36.8214 91.0504C38.4351 92.1988 39.7065 93.6467 40.6356 95.3942C41.6136 97.1417 42.1026 99.3385 42.1026 101.985C42.1026 104.831 41.4669 107.277 40.1955 109.324C38.973 111.321 37.3838 112.969 35.4278 114.267C33.4718 115.515 31.2713 116.414 28.8263 116.963C26.4303 117.562 24.0342 117.862 21.6381 117.862C18.7041 117.862 15.9168 117.487 13.2763 116.739C10.6846 115.99 8.38629 114.866 6.3814 113.368C4.42542 111.821 2.86063 109.873 1.68704 107.527C0.562346 105.13 0 102.309 0 99.0639H6.60145C6.60145 101.311 7.0171 103.258 7.84839 104.906C8.72858 106.503 9.85328 107.826 11.2225 108.875C12.6406 109.923 14.2787 110.697 16.1369 111.196C17.9951 111.696 19.9022 111.945 21.8581 111.945C23.4229 111.945 24.9877 111.796 26.5525 111.496C28.1662 111.196 29.6087 110.697 30.8801 109.998C32.1515 109.249 33.1784 108.251 33.9608 107.003C34.7432 105.754 35.1344 104.157 35.1344 102.209C35.1344 100.362 34.6454 98.8642 33.6674 97.7158C32.7383 96.5675 31.4669 95.6438 29.8532 94.9448C28.2884 94.1959 26.5036 93.5968 24.4987 93.1474C22.4938 92.6981 20.44 92.2487 18.3374 91.7993C16.2836 91.3001 14.2542 90.7509 12.2494 90.1517C10.2445 89.5026 8.43519 88.6788 6.8215 87.6803C5.25671 86.6318 3.98532 85.3087 3.00733 83.711C2.07823 82.0633 1.61369 80.0163 1.61369 77.5698C1.61369 74.8737 2.15158 72.552 3.22738 70.6048C4.30317 68.6077 5.72126 66.985 7.48164 65.7368C9.29093 64.4387 11.3203 63.49 13.5696 62.8909C15.8679 62.2418 18.2151 61.9173 20.6112 61.9173C23.3007 61.9173 25.7946 62.2418 28.0928 62.8909C30.3911 63.5399 32.396 64.5635 34.1075 65.9615C35.8679 67.3595 37.2371 69.1319 38.2151 71.2788C39.242 73.3758 39.8043 75.8972 39.9021 78.843H33.3007Z" fill="black"/>
<path d="M57.318 69.1818H39.8608V63.1905H81.7434V69.1818H64.2862V116.664H57.318V69.1818Z" fill="black"/>
<path d="M143.54 63.1905H168.186C173.173 63.1905 177.061 64.4387 179.848 66.9351C182.684 69.4315 184.103 72.8516 184.103 77.1953C184.103 80.4407 183.369 83.2866 181.902 85.7331C180.484 88.1795 178.186 89.8521 175.007 90.7509V90.9006C176.523 91.2002 177.746 91.6995 178.675 92.3985C179.653 93.0975 180.411 93.9463 180.949 94.9448C181.535 95.8935 181.951 96.9669 182.195 98.1652C182.489 99.3635 182.709 100.612 182.856 101.91C182.953 103.208 183.027 104.531 183.076 105.879C183.125 107.227 183.247 108.55 183.442 109.848C183.638 111.147 183.907 112.395 184.249 113.593C184.64 114.741 185.203 115.765 185.936 116.664H178.161C177.672 116.114 177.33 115.365 177.134 114.417C176.988 113.468 176.89 112.42 176.841 111.271C176.792 110.073 176.743 108.8 176.694 107.452C176.645 106.104 176.499 104.781 176.254 103.483C176.059 102.184 175.814 100.961 175.521 99.8128C175.227 98.6146 174.763 97.591 174.127 96.7422C173.491 95.8435 172.66 95.1445 171.633 94.6453C170.606 94.096 169.237 93.8214 167.526 93.8214H150.508V116.664H143.54V63.1905ZM165.032 87.83C166.645 87.83 168.186 87.7052 169.653 87.4556C171.12 87.2059 172.391 86.7316 173.467 86.0326C174.592 85.2837 175.472 84.3101 176.107 83.1118C176.792 81.8636 177.134 80.2659 177.134 78.3187C177.134 75.6226 176.401 73.4257 174.934 71.7282C173.467 70.0306 171.095 69.1818 167.819 69.1818H150.508V87.83H165.032Z" fill="black"/>
<path d="M188.619 63.1905H224.78V69.1818H195.587V86.1824H222.8V92.1738H195.587V110.672H225V116.664H188.619V63.1905Z" fill="black"/>
<path d="M103.117 115.159C103.092 114.699 102.847 114.254 102.574 113.738C99.3261 108.263 101.687 106.52 107.671 103.475C109.426 102.545 110.837 101.745 109.191 99.7435C108.367 98.7754 107.278 99.8745 106.383 100.177C104.769 100.84 103.558 101.712 101.995 102.335C100.335 102.999 98.6448 103.281 97.0597 102.192C96.422 101.791 95.8063 101.266 95.3057 100.721C94.5449 100.002 93.6387 98.3516 92.4967 98.4931C92.0639 98.5736 91.6525 98.993 91.4741 99.4732C91.2625 100.008 91.4085 100.59 91.5515 101.129C92.2468 103.574 89.3316 103.146 88.5132 104.557C88.41 104.75 88.354 104.968 88.3437 105.19C88.2965 105.998 88.8833 106.721 89.7091 106.726C90.5348 106.75 91.3377 106.308 92.103 106.026C93.7825 105.319 96.1838 105.102 97.2713 106.669C98.1118 107.883 96.7699 108.556 95.7791 108.855C94.1253 109.386 92.7098 109.938 91.1652 110.662C89.8986 111.226 89.9686 112.547 91.0517 113.285C91.6186 113.666 92.3257 113.586 92.9406 113.376C93.9204 113.043 94.8737 112.584 95.8447 112.191C97.2801 111.554 98.7274 111.433 99.3578 113.087C99.8245 114.276 100.042 116.007 101.396 116.456C102.193 116.704 103.163 116.053 103.119 115.195L103.117 115.159Z" fill="black"/>
<path d="M87.0813 103.86C87.3821 103.517 87.517 103.025 87.6814 102.463C89.1766 96.2469 92.0527 96.7189 98.3933 98.8861C100.278 99.4952 101.83 99.9483 102.052 97.3444C102.139 96.0647 100.608 96.0557 99.7653 95.6236C98.1662 94.9273 96.7049 94.6691 95.1684 93.981C93.5346 93.2531 92.1441 92.2316 91.7777 90.3165C91.6045 89.5727 91.5322 88.7575 91.5558 88.0107C91.5167 86.9523 92.0181 85.1313 91.1127 84.4071C90.7507 84.152 90.1697 84.1512 89.7111 84.362C89.1914 84.5871 88.892 85.1042 88.62 85.5883C87.4182 87.8195 85.6532 85.4121 84.0975 85.8186C83.8904 85.8811 83.7002 85.994 83.5394 86.1438C82.9467 86.6813 82.8604 87.6163 83.4414 88.2155C84.0083 88.829 84.882 89.0955 85.6185 89.4493C87.2958 90.1622 89.1442 91.7415 88.8286 93.6355C88.5824 95.1004 87.1675 94.6073 86.2592 94.1037C84.7227 93.2854 83.3396 92.6531 81.7456 92.0501C80.4591 91.5345 79.5943 92.5191 79.8486 93.8222C79.9858 94.5012 80.5409 94.9551 81.1212 95.251C82.045 95.7222 83.0373 96.0858 83.9958 96.5089C85.4519 97.0945 86.5586 98.0551 85.8589 99.6788C85.3657 100.856 84.3209 102.237 84.9675 103.532C85.3598 104.284 86.4959 104.523 87.0584 103.884L87.0813 103.86Z" fill="black"/>
<path d="M83.5675 84.2954C84.018 84.2698 84.4537 84.0198 84.9595 83.7406C90.3217 80.4246 92.0284 82.835 95.0107 88.9453C95.922 90.7369 96.705 92.1777 98.6654 90.4968C99.6135 89.6552 98.5371 88.5433 98.2407 87.6294C97.5919 85.9824 96.7374 84.7455 96.1277 83.1496C95.4767 81.4551 95.2009 79.729 96.2678 78.1105C96.66 77.4594 97.1739 76.8308 97.7077 76.3196C98.4125 75.5428 100.029 74.6176 99.89 73.4515C99.8111 73.0097 99.4004 72.5896 98.9301 72.4074C98.4066 72.1914 97.8367 72.3404 97.3088 72.4865C94.9134 73.1964 95.3329 70.2199 93.9513 69.3843C93.7618 69.2789 93.5487 69.2217 93.3312 69.2111C92.5401 69.163 91.8316 69.7622 91.8272 70.6053C91.8028 71.4484 92.2364 72.2682 92.5121 73.0496C93.2044 74.7644 93.4175 77.2162 91.8825 78.3266C90.694 79.1847 90.0349 77.8147 89.7414 76.8029C89.2216 75.1144 88.6812 73.6691 87.972 72.092C87.419 70.7987 86.1258 70.8703 85.4033 71.9761C85.0295 72.555 85.1084 73.2769 85.3134 73.9047C85.64 74.9052 86.0897 75.8785 86.4746 76.8699C87.0983 78.3356 87.2163 79.8133 85.5965 80.4569C84.4323 80.9335 82.7373 81.1555 82.2972 82.5384C82.0539 83.3521 82.6916 84.342 83.5321 84.2969L83.5675 84.2954Z" fill="black"/>
<path d="M94.6334 67.9245C94.9696 68.2316 95.451 68.3694 96.0018 68.5373C102.089 70.0639 101.627 73.0005 99.5046 79.4744C98.9081 81.3993 98.4643 82.9831 101.014 83.2097C102.268 83.2993 102.277 81.7358 102.7 80.8753C103.382 79.2426 103.635 77.7505 104.309 76.1818C105.022 74.5136 106.022 73.0938 107.898 72.7197C108.626 72.5428 109.425 72.469 110.156 72.4931C111.193 72.4532 112.976 72.9651 113.685 72.0407C113.935 71.6711 113.936 71.0779 113.73 70.6097C113.509 70.079 113.003 69.7733 112.528 69.4955C110.343 68.2685 112.701 66.4664 112.303 64.878C112.242 64.6665 112.131 64.4722 111.984 64.3081C111.458 63.7029 110.542 63.6148 109.955 64.208C109.355 64.7869 109.094 65.6789 108.747 66.431C108.049 68.1436 106.502 70.0308 104.647 69.7086C103.212 69.4572 103.695 68.0126 104.188 67.0851C104.99 65.5163 105.609 64.1041 106.2 62.4766C106.705 61.163 105.74 60.28 104.464 60.5397C103.799 60.6797 103.355 61.2466 103.065 61.839C102.603 62.7822 102.247 63.7955 101.833 64.7741C101.259 66.2608 100.319 67.3908 98.7282 66.6764C97.5751 66.1728 96.223 65.1061 94.9541 65.7663C94.2183 66.1667 93.9839 67.3268 94.6098 67.9012L94.6334 67.9245Z" fill="black"/>
<path d="M113.792 64.3368C113.817 64.7967 114.062 65.2416 114.335 65.758C117.583 71.233 115.222 72.9757 109.238 76.0207C107.483 76.9512 106.072 77.7506 107.718 79.7523C108.543 80.7203 109.632 79.6213 110.527 79.3187C112.14 78.6562 113.351 77.7837 114.914 77.1612C116.574 76.4965 118.264 76.2149 119.849 77.3042C120.487 77.7047 121.103 78.2294 121.603 78.7744C122.364 79.4941 123.27 81.1442 124.412 81.0026C124.845 80.9221 125.257 80.5028 125.435 80.0225C125.647 79.488 125.501 78.9061 125.358 78.3671C124.662 75.9214 127.577 76.3497 128.396 74.939C128.499 74.7455 128.555 74.528 128.565 74.3059C128.613 73.4981 128.026 72.7747 127.2 72.7702C126.374 72.7454 125.571 73.188 124.806 73.4695C123.127 74.1764 120.725 74.394 119.638 72.8267C118.797 71.6132 120.139 70.9402 121.13 70.6406C122.784 70.1099 124.199 69.5581 125.744 68.8339C127.011 68.2693 126.94 66.9489 125.857 66.2112C125.29 65.8296 124.583 65.9101 123.969 66.1194C122.989 66.4529 122.035 66.9121 121.064 67.305C119.629 67.9419 118.182 68.0623 117.551 66.4084C117.085 65.2198 116.867 63.4892 115.513 63.0397C114.716 62.7913 113.746 63.4425 113.79 64.3007L113.792 64.3368Z" fill="black"/>
<path d="M129.83 75.6328C129.529 75.9761 129.394 76.4676 129.23 77.0299C127.735 83.2457 124.859 82.7737 118.518 80.6064C116.633 79.9974 115.082 79.5442 114.86 82.1481C114.772 83.4278 116.303 83.4369 117.146 83.869C118.745 84.5653 120.206 84.8235 121.743 85.5115C123.377 86.2395 124.767 87.261 125.134 89.1761C125.307 89.9198 125.379 90.7351 125.356 91.4818C125.395 92.5403 124.893 94.3612 125.799 95.0854C126.161 95.3406 126.742 95.3414 127.2 95.1306C127.72 94.9055 128.019 94.3883 128.291 93.9043C129.493 91.6731 131.258 94.0805 132.814 93.674C133.021 93.6115 133.211 93.4985 133.372 93.3487C133.965 92.8113 134.051 91.8763 133.47 91.2771C132.903 90.6636 132.029 90.3971 131.293 90.0433C129.616 89.3304 127.767 87.7511 128.083 85.8571C128.329 84.3922 129.744 84.8852 130.652 85.3888C132.189 86.2071 133.572 86.8394 135.166 87.4424C136.452 87.9581 137.317 86.9734 137.063 85.6704C136.926 84.9914 136.37 84.5374 135.79 84.2416C134.866 83.7704 133.874 83.4068 132.916 82.9837C131.459 82.398 130.353 81.4375 131.052 79.8137C131.546 78.6364 132.59 77.2558 131.944 75.9602C131.552 75.209 130.415 74.9696 129.853 75.6087L129.83 75.6328Z" fill="black"/>
<path d="M133.343 95.197C132.892 95.2226 132.456 95.4725 131.951 95.7518C126.588 99.0678 124.882 96.6574 121.899 90.5471C120.988 88.7555 120.205 87.3146 118.245 88.9956C117.297 89.8372 118.373 90.9491 118.669 91.863C119.318 93.51 120.173 94.7469 120.782 96.3428C121.433 98.0373 121.709 99.7634 120.642 101.382C120.25 102.033 119.736 102.662 119.202 103.173C118.498 103.95 116.882 104.875 117.02 106.041C117.099 106.483 117.51 106.903 117.98 107.085C118.504 107.301 119.073 107.152 119.601 107.006C121.997 106.296 121.577 109.273 122.959 110.108C123.148 110.214 123.361 110.271 123.579 110.281C124.37 110.329 125.079 109.73 125.083 108.887C125.107 108.044 124.674 107.224 124.398 106.443C123.706 104.728 123.493 102.276 125.028 101.166C126.216 100.308 126.875 101.678 127.169 102.689C127.688 104.378 128.229 105.823 128.938 107.4C129.491 108.694 130.784 108.622 131.507 107.516C131.881 106.937 131.802 106.215 131.597 105.588C131.27 104.587 130.82 103.614 130.436 102.622C129.812 101.157 129.694 99.6791 131.314 99.0355C132.478 98.5589 134.173 98.3369 134.613 96.954C134.856 96.1403 134.218 95.1504 133.378 95.1955L133.343 95.197Z" fill="black"/>
<path d="M122.276 111.57C121.94 111.263 121.459 111.125 120.908 110.957C114.82 109.43 115.282 106.494 117.405 100.02C118.002 98.095 118.445 96.5112 115.895 96.2846C114.642 96.195 114.633 97.7585 114.21 98.619C113.528 100.252 113.275 101.744 112.601 103.313C111.888 104.981 110.888 106.4 109.012 106.775C108.284 106.952 107.485 107.025 106.754 107.001C105.717 107.041 103.934 106.529 103.224 107.454C102.974 107.823 102.974 108.416 103.18 108.885C103.401 109.415 103.907 109.721 104.381 109.999C106.566 111.226 104.209 113.028 104.607 114.616C104.668 114.828 104.779 115.022 104.925 115.186C105.452 115.791 106.367 115.88 106.954 115.286C107.555 114.707 107.816 113.815 108.163 113.063C108.861 111.351 110.408 109.464 112.263 109.786C113.697 110.037 113.214 111.482 112.721 112.409C111.92 113.978 111.3 115.39 110.71 117.018C110.205 118.331 111.169 119.214 112.445 118.955C113.11 118.815 113.555 118.248 113.845 117.655C114.306 116.712 114.662 115.699 115.077 114.72C115.65 113.233 116.591 112.104 118.181 112.818C119.335 113.322 120.687 114.388 121.956 113.728C122.691 113.328 122.926 112.168 122.3 111.593L122.276 111.57Z" fill="black"/>
</svg>
