{
    "asset": {
        "generator": "https://3dviewer.net",
        "version": "2.0"
    },
    "scene": 0,
    "scenes": [
        {
            "nodes": [
                0
            ]
        }
    ],
    "nodes": [
        {
            "mesh": 0
        }
    ],
    "materials": [
        {
            "name": "nmodel_16_01_seriatopora_med_mat",
            "pbrMetallicRoughness": {
                "baseColorFactor": [
                    1,
                    1,
                    1,
                    1
                ],
                "baseColorTexture": {
                    "index": 0
                }
            },
            "emissiveFactor": [
                0,
                0,
                0
            ],
            "doubleSided": true,
            "alphaMode": "OPAQUE",
            "normalTexture": {
                "index": 1
            }
        }
    ],
    "meshes": [
        {
            "name": "nmodel_06_01_seriatopora_medium",
            "primitives": [
                {
                    "attributes": {
                        "POSITION": 1,
                        "NORMAL": 2,
                        "TEXCOORD_0": 3
                    },
                    "mode": 4,
                    "material": 0,
                    "indices": 0
                }
            ]
        }
    ],
    "buffers": [
        {
            "uri": "model.bin",
            "byteLength": 610848
        }
    ],
    "bufferViews": [
        {
            "buffer": 0,
            "byteOffset": 0,
            "byteLength": 67872,
            "target": 34963
        },
        {
            "buffer": 0,
            "byteOffset": 67872,
            "byteLength": 203616,
            "target": 34962
        },
        {
            "buffer": 0,
            "byteOffset": 271488,
            "byteLength": 203616,
            "target": 34962
        },
        {
            "buffer": 0,
            "byteOffset": 475104,
            "byteLength": 135744,
            "target": 34962
        }
    ],
    "accessors": [
        {
            "bufferView": 0,
            "byteOffset": 0,
            "componentType": 5125,
            "count": 16968,
            "type": "SCALAR"
        },
        {
            "bufferView": 1,
            "byteOffset": 0,
            "componentType": 5126,
            "count": 16968,
            "min": [
                -7.882234573364258,
                -0.22274619340896606,
                -9.425251007080078
            ],
            "max": [
                10.579146385192871,
                19.615964889526367,
                9.537912368774414
            ],
            "type": "VEC3"
        },
        {
            "bufferView": 2,
            "byteOffset": 0,
            "componentType": 5126,
            "count": 16968,
            "type": "VEC3"
        },
        {
            "bufferView": 3,
            "byteOffset": 0,
            "componentType": 5126,
            "count": 16968,
            "type": "VEC2"
        }
    ],
    "images": [
        {
            "uri": "nmodel_16_01_seriatopora_mid_green_Diffuse.png"
        },
        {
            "uri": "nmodel_16_01_seriatopora_mid_rose_Normal.png"
        }
    ],
    "textures": [
        {
            "source": 0
        },
        {
            "source": 1
        }
    ]
}