{
    "asset": {
        "generator": "https://3dviewer.net",
        "version": "2.0"
    },
    "scene": 0,
    "scenes": [
        {
            "nodes": [
                0,
                1,
                2
            ]
        }
    ],
    "nodes": [
        {
            "mesh": 0,
            "matrix": [
                1.0000000000000004,
                -1.3234889800848649e-23,
                1.7377590819732452e-7,
                0,
                1.7377590819732452e-7,
                1.1102230246251738e-16,
                -1.0000000000000004,
                0,
                -1.3234889800848443e-23,
                1,
                1.1102230246251565e-16,
                0,
                -0.10883951187133789,
                0,
                -0.2085561752319336,
                1
            ]
        },
        {
            "mesh": 1,
            "matrix": [
                1,
                0,
                0,
                0,
                0,
                2.220446049250313e-16,
                -1,
                0,
                0,
                1,
                2.220446049250313e-16,
                0,
                0.43038415908813477,
                0,
                0.6977486610412598,
                1
            ]
        },
        {
            "mesh": 2,
            "matrix": [
                1,
                0,
                0,
                0,
                0,
                2.220446049250313e-16,
                -1,
                0,
                0,
                1,
                2.220446049250313e-16,
                0,
                -0.3971366882324219,
                0,
                0.2043771743774414,
                1
            ]
        }
    ],
    "materials": [
        {
            "name": "actinia pink_st",
            "pbrMetallicRoughness": {
                "baseColorFactor": [
                    1,
                    1,
                    1,
                    1
                ],
                "baseColorTexture": {
                    "index": 0
                }
            },
            "emissiveFactor": [
                0,
                0,
                0
            ],
            "doubleSided": true,
            "alphaMode": "OPAQUE"
        },
        {
            "name": "actinia pink_st.1",
            "pbrMetallicRoughness": {
                "baseColorFactor": [
                    1,
                    1,
                    1,
                    1
                ],
                "baseColorTexture": {
                    "index": 0
                }
            },
            "emissiveFactor": [
                0,
                0,
                0
            ],
            "doubleSided": true,
            "alphaMode": "OPAQUE"
        },
        {
            "name": "actinia pink_st.2",
            "pbrMetallicRoughness": {
                "baseColorFactor": [
                    1,
                    1,
                    1,
                    1
                ],
                "baseColorTexture": {
                    "index": 0
                }
            },
            "emissiveFactor": [
                0,
                0,
                0
            ],
            "doubleSided": true,
            "alphaMode": "OPAQUE"
        }
    ],
    "meshes": [
        {
            "name": "actinia_flower",
            "primitives": [
                {
                    "attributes": {
                        "POSITION": 1,
                        "NORMAL": 2,
                        "TEXCOORD_0": 3
                    },
                    "mode": 4,
                    "material": 0,
                    "indices": 0
                }
            ]
        },
        {
            "name": "actinia_trunk",
            "primitives": [
                {
                    "attributes": {
                        "POSITION": 5,
                        "NORMAL": 6,
                        "TEXCOORD_0": 7
                    },
                    "mode": 4,
                    "material": 1,
                    "indices": 4
                }
            ]
        },
        {
            "name": "actinia_ground",
            "primitives": [
                {
                    "attributes": {
                        "POSITION": 9,
                        "NORMAL": 10,
                        "TEXCOORD_0": 11
                    },
                    "mode": 4,
                    "material": 2,
                    "indices": 8
                }
            ]
        }
    ],
    "buffers": [
        {
            "uri": "model.bin",
            "byteLength": 2542320
        }
    ],
    "bufferViews": [
        {
            "buffer": 0,
            "byteOffset": 0,
            "byteLength": 227712,
            "target": 34963
        },
        {
            "buffer": 0,
            "byteOffset": 227712,
            "byteLength": 683136,
            "target": 34962
        },
        {
            "buffer": 0,
            "byteOffset": 910848,
            "byteLength": 683136,
            "target": 34962
        },
        {
            "buffer": 0,
            "byteOffset": 1593984,
            "byteLength": 455424,
            "target": 34962
        },
        {
            "buffer": 0,
            "byteOffset": 2049408,
            "byteLength": 7584,
            "target": 34963
        },
        {
            "buffer": 0,
            "byteOffset": 2056992,
            "byteLength": 22752,
            "target": 34962
        },
        {
            "buffer": 0,
            "byteOffset": 2079744,
            "byteLength": 22752,
            "target": 34962
        },
        {
            "buffer": 0,
            "byteOffset": 2102496,
            "byteLength": 15168,
            "target": 34962
        },
        {
            "buffer": 0,
            "byteOffset": 2117664,
            "byteLength": 47184,
            "target": 34963
        },
        {
            "buffer": 0,
            "byteOffset": 2164848,
            "byteLength": 141552,
            "target": 34962
        },
        {
            "buffer": 0,
            "byteOffset": 2306400,
            "byteLength": 141552,
            "target": 34962
        },
        {
            "buffer": 0,
            "byteOffset": 2447952,
            "byteLength": 94368,
            "target": 34962
        }
    ],
    "accessors": [
        {
            "bufferView": 0,
            "byteOffset": 0,
            "componentType": 5125,
            "count": 56928,
            "type": "SCALAR"
        },
        {
            "bufferView": 1,
            "byteOffset": 0,
            "componentType": 5126,
            "count": 56928,
            "min": [
                -22.26922607421875,
                -21.941158294677734,
                11.305736541748047
            ],
            "max": [
                22.48690414428711,
                21.524044036865234,
                38.29689025878906
            ],
            "type": "VEC3"
        },
        {
            "bufferView": 2,
            "byteOffset": 0,
            "componentType": 5126,
            "count": 56928,
            "type": "VEC3"
        },
        {
            "bufferView": 3,
            "byteOffset": 0,
            "componentType": 5126,
            "count": 56928,
            "type": "VEC2"
        },
        {
            "bufferView": 4,
            "byteOffset": 0,
            "componentType": 5125,
            "count": 1896,
            "type": "SCALAR"
        },
        {
            "bufferView": 5,
            "byteOffset": 0,
            "componentType": 5126,
            "count": 1896,
            "min": [
                -8.847132682800293,
                -9.188919067382812,
                2.531493663787842
            ],
            "max": [
                9.469834327697754,
                8.20201587677002,
                16.097919464111328
            ],
            "type": "VEC3"
        },
        {
            "bufferView": 6,
            "byteOffset": 0,
            "componentType": 5126,
            "count": 1896,
            "type": "VEC3"
        },
        {
            "bufferView": 7,
            "byteOffset": 0,
            "componentType": 5126,
            "count": 1896,
            "type": "VEC2"
        },
        {
            "bufferView": 8,
            "byteOffset": 0,
            "componentType": 5125,
            "count": 11796,
            "type": "SCALAR"
        },
        {
            "bufferView": 9,
            "byteOffset": 0,
            "componentType": 5126,
            "count": 11796,
            "min": [
                -14.717467308044434,
                -12.602980613708496,
                0
            ],
            "max": [
                13.467985153198242,
                13.692984580993652,
                4.815533638000488
            ],
            "type": "VEC3"
        },
        {
            "bufferView": 10,
            "byteOffset": 0,
            "componentType": 5126,
            "count": 11796,
            "type": "VEC3"
        },
        {
            "bufferView": 11,
            "byteOffset": 0,
            "componentType": 5126,
            "count": 11796,
            "type": "VEC2"
        }
    ],
    "images": [
        {
            "uri": "actinia pink_diffuse.jpg"
        }
    ],
    "textures": [
        {
            "source": 0
        }
    ]
}