{
  "accessors": [
    {
      "bufferView": 2,
      "componentType": 5126,
      "count": 65532,
      "max": [
        0.6663299798965454,
        8.210262298583984,
        0.9228169918060303
      ],
      "min": [
        -1.232192039489746,
        6.517330169677734,
        -0.5277789831161499
      ],
      "type": "VEC3"
    },
    {
      "bufferView": 2,
      "byteOffset": 786384,
      "componentType": 5126,
      "count": 65532,
      "max": [
        0.9999558925628662,
        0.9999913573265076,
        0.9999854564666748
      ],
      "min": [
        -0.9999879598617554,
        -0.9999684691429138,
        -0.9999929666519165
      ],
      "type": "VEC3"
    },
    {
      "bufferView": 1,
      "componentType": 5126,
      "count": 65532,
      "max": [
        0.995123028755188,
        1.0
      ],
      "min": [
        0.0,
        0.0
      ],
      "type": "VEC2"
    },
    {
      "bufferView": 0,
      "componentType": 5125,
      "count": 338961,
      "type": "SCALAR"
    },
    {
      "bufferView": 2,
      "byteOffset": 1572768,
      "componentType": 5126,
      "count": 65532,
      "max": [
        1.1964190006256104,
        8.19881820678711,
        0.9228169918060303
      ],
      "min": [
        -0.8963450193405151,
        6.457240104675293,
        -0.5392079949378967
      ],
      "type": "VEC3"
    },
    {
      "bufferView": 2,
      "byteOffset": 2359152,
      "componentType": 5126,
      "count": 65532,
      "max": [
        0.9999861717224121,
        0.9999232888221741,
        0.9999627470970154
      ],
      "min": [
        -0.9999698400497437,
        -0.9999890923500061,
        -0.9999549984931946
      ],
      "type": "VEC3"
    },
    {
      "bufferView": 1,
      "byteOffset": 524256,
      "componentType": 5126,
      "count": 65532,
      "max": [
        0.9942589998245239,
        0.996737003326416
      ],
      "min": [
        0.0058650001883506775,
        0.0
      ],
      "type": "VEC2"
    },
    {
      "bufferView": 0,
      "byteOffset": 1355844,
      "componentType": 5125,
      "count": 329319,
      "type": "SCALAR"
    },
    {
      "bufferView": 2,
      "byteOffset": 3145536,
      "componentType": 5126,
      "count": 22815,
      "max": [
        1.1925239562988281,
        8.209718704223633,
        0.874891996383667
      ],
      "min": [
        -1.1625510454177856,
        6.457563877105713,
        -0.5378850102424622
      ],
      "type": "VEC3"
    },
    {
      "bufferView": 2,
      "byteOffset": 3419316,
      "componentType": 5126,
      "count": 22815,
      "max": [
        0.9999883770942688,
        0.9997737407684326,
        0.9997059106826782
      ],
      "min": [
        -0.9996688365936279,
        -0.9999338388442993,
        -0.9999929666519165
      ],
      "type": "VEC3"
    },
    {
      "bufferView": 1,
      "byteOffset": 1048512,
      "componentType": 5126,
      "count": 22815,
      "max": [
        0.98130202293396,
        0.9946929812431335
      ],
      "min": [
        0.01142099965363741,
        0.0
      ],
      "type": "VEC2"
    },
    {
      "bufferView": 0,
      "byteOffset": 2673120,
      "componentType": 5125,
      "count": 86748,
      "type": "SCALAR"
    }
  ],
  "asset": {
    "extras": {
      "author": "Digital Atlas of Ancient Life (https://sketchfab.com/DigitalAtlasOfAncientLife)",
      "license": "CC0-1.0 (http://creativecommons.org/publicdomain/zero/1.0/)",
      "source": "https://sketchfab.com/3d-models/coral-eusmilia-fastigata-pri-76767-b20e7b87618e4fab97453fd65febc6c3",
      "title": "Coral: Eusmilia fastigata (PRI 76767)"
    },
    "generator": "Sketchfab-12.68.0",
    "version": "2.0"
  },
  "bufferViews": [
    {
      "buffer": 0,
      "byteLength": 3020112,
      "name": "floatBufferViews",
      "target": 34963
    },
    {
      "buffer": 0,
      "byteLength": 1231032,
      "byteOffset": 3020112,
      "byteStride": 8,
      "name": "floatBufferViews",
      "target": 34962
    },
    {
      "buffer": 0,
      "byteLength": 3693096,
      "byteOffset": 4251144,
      "byteStride": 12,
      "name": "floatBufferViews",
      "target": 34962
    }
  ],
  "buffers": [
    {
      "byteLength": 7944240,
      "uri": "scene.bin"
    }
  ],
  "extensionsUsed": [
    "KHR_materials_unlit"
  ],
  "images": [
    {
      "uri": "textures/PRI_Eusmilia_baseColor.jpeg"
    }
  ],
  "materials": [
    {
      "doubleSided": true,
      "extensions": {
        "KHR_materials_unlit": {}
      },
      "name": "PRI_Eusmilia",
      "pbrMetallicRoughness": {
        "baseColorTexture": {
          "index": 0
        },
        "metallicFactor": 0.0
      }
    }
  ],
  "meshes": [
    {
      "name": "Object_0",
      "primitives": [
        {
          "attributes": {
            "NORMAL": 1,
            "POSITION": 0,
            "TEXCOORD_0": 2
          },
          "indices": 3,
          "material": 0,
          "mode": 4
        }
      ]
    },
    {
      "name": "Object_1",
      "primitives": [
        {
          "attributes": {
            "NORMAL": 5,
            "POSITION": 4,
            "TEXCOORD_0": 6
          },
          "indices": 7,
          "material": 0,
          "mode": 4
        }
      ]
    },
    {
      "name": "Object_2",
      "primitives": [
        {
          "attributes": {
            "NORMAL": 9,
            "POSITION": 8,
            "TEXCOORD_0": 10
          },
          "indices": 11,
          "material": 0,
          "mode": 4
        }
      ]
    }
  ],
  "nodes": [
    {
      "children": [
        1
      ],
      "matrix": [
        0.9963796138763428,
        0.08501601219177246,
        2.581624074333099e-17,
        0.0,
        -0.06630245596170425,
        0.7770585417747499,
        -0.6259265542030332,
        0.0,
        -0.053213778883218765,
        0.6236604452133176,
        0.7798820137977601,
        0.0,
        0.49638766050338745,
        -5.625049114227294,
        -2.8929469585418714,
        1.0
      ],
      "name": "Sketchfab_model"
    },
    {
      "children": [
        2,
        3,
        4
      ],
      "name": "PRI_Eusmilia.obj.cleaner.materialmerger.gles"
    },
    {
      "mesh": 0,
      "name": "Object_2"
    },
    {
      "mesh": 1,
      "name": "Object_3"
    },
    {
      "mesh": 2,
      "name": "Object_4"
    }
  ],
  "samplers": [
    {
      "magFilter": 9729,
      "minFilter": 9987,
      "wrapS": 10497,
      "wrapT": 10497
    }
  ],
  "scene": 0,
  "scenes": [
    {
      "name": "Sketchfab_Scene",
      "nodes": [
        0
      ]
    }
  ],
  "textures": [
    {
      "sampler": 0,
      "source": 0
    }
  ]
}
