{
    "asset": {
        "generator": "https://3dviewer.net",
        "version": "2.0"
    },
    "scene": 0,
    "scenes": [
        {
            "nodes": [
                0
            ]
        }
    ],
    "nodes": [
        {
            "mesh": 0,
            "matrix": [
                1,
                0,
                0,
                0,
                0,
                2.220446049250313e-16,
                -1,
                0,
                0,
                1,
                2.220446049250313e-16,
                0,
                0,
                6.823278903961182,
                0,
                1
            ]
        }
    ],
    "materials": [
        {
            "name": "coral brain_st mtl",
            "pbrMetallicRoughness": {
                "baseColorFactor": [
                    1,
                    1,
                    1,
                    1
                ],
                "baseColorTexture": {
                    "index": 0
                }
            },
            "emissiveFactor": [
                0,
                0,
                0
            ],
            "doubleSided": true,
            "alphaMode": "OPAQUE"
        }
    ],
    "meshes": [
        {
            "name": "brain_coral",
            "primitives": [
                {
                    "attributes": {
                        "POSITION": 1,
                        "NORMAL": 2,
                        "TEXCOORD_0": 3
                    },
                    "mode": 4,
                    "material": 0,
                    "indices": 0
                }
            ]
        }
    ],
    "buffers": [
        {
            "uri": "model.bin",
            "byteLength": 89856
        }
    ],
    "bufferViews": [
        {
            "buffer": 0,
            "byteOffset": 0,
            "byteLength": 9984,
            "target": 34963
        },
        {
            "buffer": 0,
            "byteOffset": 9984,
            "byteLength": 29952,
            "target": 34962
        },
        {
            "buffer": 0,
            "byteOffset": 39936,
            "byteLength": 29952,
            "target": 34962
        },
        {
            "buffer": 0,
            "byteOffset": 69888,
            "byteLength": 19968,
            "target": 34962
        }
    ],
    "accessors": [
        {
            "bufferView": 0,
            "byteOffset": 0,
            "componentType": 5125,
            "count": 2496,
            "type": "SCALAR"
        },
        {
            "bufferView": 1,
            "byteOffset": 0,
            "componentType": 5126,
            "count": 2496,
            "min": [
                -13.139725685119629,
                -10.519928932189941,
                -6.549578666687012
            ],
            "max": [
                13.139724731445312,
                10.519928932189941,
                6.5495781898498535
            ],
            "type": "VEC3"
        },
        {
            "bufferView": 2,
            "byteOffset": 0,
            "componentType": 5126,
            "count": 2496,
            "type": "VEC3"
        },
        {
            "bufferView": 3,
            "byteOffset": 0,
            "componentType": 5126,
            "count": 2496,
            "type": "VEC2"
        }
    ],
    "images": [
        {
            "uri": "coral brain_diffuse.jpg"
        }
    ],
    "textures": [
        {
            "source": 0
        }
    ]
}