{
    "asset": {
        "generator": "https://3dviewer.net",
        "version": "2.0"
    },
    "scene": 0,
    "scenes": [
        {
            "nodes": [
                0
            ]
        }
    ],
    "nodes": [
        {
            "mesh": 0
        }
    ],
    "materials": [
        {
            "name": "nmodel_16_15_favites_mat",
            "pbrMetallicRoughness": {
                "baseColorFactor": [
                    1,
                    1,
                    1,
                    1
                ],
                "baseColorTexture": {
                    "index": 0
                }
            },
            "emissiveFactor": [
                0,
                0,
                0
            ],
            "doubleSided": true,
            "alphaMode": "OPAQUE",
            "normalTexture": {
                "index": 1
            }
        }
    ],
    "meshes": [
        {
            "name": "favites",
            "primitives": [
                {
                    "attributes": {
                        "POSITION": 1,
                        "NORMAL": 2,
                        "TEXCOORD_0": 3
                    },
                    "mode": 4,
                    "material": 0,
                    "indices": 0
                }
            ]
        }
    ],
    "buffers": [
        {
            "uri": "model.bin",
            "byteLength": 187488
        }
    ],
    "bufferViews": [
        {
            "buffer": 0,
            "byteOffset": 0,
            "byteLength": 20832,
            "target": 34963
        },
        {
            "buffer": 0,
            "byteOffset": 20832,
            "byteLength": 62496,
            "target": 34962
        },
        {
            "buffer": 0,
            "byteOffset": 83328,
            "byteLength": 62496,
            "target": 34962
        },
        {
            "buffer": 0,
            "byteOffset": 145824,
            "byteLength": 41664,
            "target": 34962
        }
    ],
    "accessors": [
        {
            "bufferView": 0,
            "byteOffset": 0,
            "componentType": 5125,
            "count": 5208,
            "type": "SCALAR"
        },
        {
            "bufferView": 1,
            "byteOffset": 0,
            "componentType": 5126,
            "count": 5208,
            "min": [
                -11.283644676208496,
                -0.08321411907672882,
                -12.513763427734375
            ],
            "max": [
                12.849618911743164,
                17.24851417541504,
                11.22377872467041
            ],
            "type": "VEC3"
        },
        {
            "bufferView": 2,
            "byteOffset": 0,
            "componentType": 5126,
            "count": 5208,
            "type": "VEC3"
        },
        {
            "bufferView": 3,
            "byteOffset": 0,
            "componentType": 5126,
            "count": 5208,
            "type": "VEC2"
        }
    ],
    "images": [
        {
            "uri": "nmodel_16_15_favites_Diffuse.png"
        },
        {
            "uri": "nmodel_16_15_favites_Normal.png"
        }
    ],
    "textures": [
        {
            "source": 0
        },
        {
            "source": 1
        }
    ]
}