{
    "asset": {
        "generator": "https://3dviewer.net",
        "version": "2.0"
    },
    "scene": 0,
    "scenes": [
        {
            "nodes": [
                0
            ]
        }
    ],
    "nodes": [
        {
            "mesh": 0
        }
    ],
    "materials": [
        {
            "name": "nmodel_16_19_tridacna_mat",
            "pbrMetallicRoughness": {
                "baseColorFactor": [
                    1,
                    1,
                    1,
                    1
                ],
                "baseColorTexture": {
                    "index": 0
                }
            },
            "emissiveFactor": [
                0,
                0,
                0
            ],
            "doubleSided": true,
            "alphaMode": "OPAQUE",
            "normalTexture": {
                "index": 1
            }
        }
    ],
    "meshes": [
        {
            "name": "tridacna",
            "primitives": [
                {
                    "attributes": {
                        "POSITION": 1,
                        "NORMAL": 2,
                        "TEXCOORD_0": 3
                    },
                    "mode": 4,
                    "material": 0,
                    "indices": 0
                }
            ]
        }
    ],
    "buffers": [
        {
            "uri": "model.bin",
            "byteLength": 619056
        }
    ],
    "bufferViews": [
        {
            "buffer": 0,
            "byteOffset": 0,
            "byteLength": 68784,
            "target": 34963
        },
        {
            "buffer": 0,
            "byteOffset": 68784,
            "byteLength": 206352,
            "target": 34962
        },
        {
            "buffer": 0,
            "byteOffset": 275136,
            "byteLength": 206352,
            "target": 34962
        },
        {
            "buffer": 0,
            "byteOffset": 481488,
            "byteLength": 137568,
            "target": 34962
        }
    ],
    "accessors": [
        {
            "bufferView": 0,
            "byteOffset": 0,
            "componentType": 5125,
            "count": 17196,
            "type": "SCALAR"
        },
        {
            "bufferView": 1,
            "byteOffset": 0,
            "componentType": 5126,
            "count": 17196,
            "min": [
                -4.1861252784729,
                0.09371770173311234,
                -8.365812301635742
            ],
            "max": [
                4.198831081390381,
                8.13427734375,
                7.565232753753662
            ],
            "type": "VEC3"
        },
        {
            "bufferView": 2,
            "byteOffset": 0,
            "componentType": 5126,
            "count": 17196,
            "type": "VEC3"
        },
        {
            "bufferView": 3,
            "byteOffset": 0,
            "componentType": 5126,
            "count": 17196,
            "type": "VEC2"
        }
    ],
    "images": [
        {
            "uri": "nmodel_16_19_tridacna_Diffuse.png"
        },
        {
            "uri": "nmodel_16_19_tridacna_Normal.png"
        }
    ],
    "textures": [
        {
            "source": 0
        },
        {
            "source": 1
        }
    ]
}