{
    "asset": {
        "generator": "https://3dviewer.net",
        "version": "2.0"
    },
    "scene": 0,
    "scenes": [
        {
            "nodes": [
                0
            ]
        }
    ],
    "nodes": [
        {
            "mesh": 0,
            "matrix": [
                1,
                0,
                0,
                0,
                0,
                2.220446049250313e-16,
                -1,
                0,
                0,
                1,
                2.220446049250313e-16,
                0,
                0,
                2.299480438232422,
                1.0051348198203414e-7,
                1
            ]
        }
    ],
    "materials": [
        {
            "name": "sun coral_st mtl",
            "pbrMetallicRoughness": {
                "baseColorFactor": [
                    1,
                    1,
                    1,
                    1
                ],
                "baseColorTexture": {
                    "index": 0
                }
            },
            "emissiveFactor": [
                0,
                0,
                0
            ],
            "doubleSided": true,
            "alphaMode": "OPAQUE"
        }
    ],
    "meshes": [
        {
            "name": "sun_coral",
            "primitives": [
                {
                    "attributes": {
                        "POSITION": 1,
                        "NORMAL": 2,
                        "TEXCOORD_0": 3
                    },
                    "mode": 4,
                    "material": 0,
                    "indices": 0
                }
            ]
        }
    ],
    "buffers": [
        {
            "uri": "model.bin",
            "byteLength": 1180656
        }
    ],
    "bufferViews": [
        {
            "buffer": 0,
            "byteOffset": 0,
            "byteLength": 131184,
            "target": 34963
        },
        {
            "buffer": 0,
            "byteOffset": 131184,
            "byteLength": 393552,
            "target": 34962
        },
        {
            "buffer": 0,
            "byteOffset": 524736,
            "byteLength": 393552,
            "target": 34962
        },
        {
            "buffer": 0,
            "byteOffset": 918288,
            "byteLength": 262368,
            "target": 34962
        }
    ],
    "accessors": [
        {
            "bufferView": 0,
            "byteOffset": 0,
            "componentType": 5125,
            "count": 32796,
            "type": "SCALAR"
        },
        {
            "bufferView": 1,
            "byteOffset": 0,
            "componentType": 5126,
            "count": 32796,
            "min": [
                -7.993893623352051,
                -8.625682830810547,
                -2.299480438232422
            ],
            "max": [
                7.475250720977783,
                8.193197250366211,
                8.042518615722656
            ],
            "type": "VEC3"
        },
        {
            "bufferView": 2,
            "byteOffset": 0,
            "componentType": 5126,
            "count": 32796,
            "type": "VEC3"
        },
        {
            "bufferView": 3,
            "byteOffset": 0,
            "componentType": 5126,
            "count": 32796,
            "type": "VEC2"
        }
    ],
    "images": [
        {
            "uri": "sun coral_diffuse.jpg"
        }
    ],
    "textures": [
        {
            "source": 0
        }
    ]
}